<svg width="66" height="24" viewBox="0 0 66 24" fill="none" xmlns="http://www.w3.org/2000/svg">
<path d="M3.83702 17.1023C3.83702 19.3649 5.2339 20.8324 7.68723 20.8324C10.1384 20.8324 11.5243 19.3649 11.5243 17.1023V6.26733H15.3613V17.4575C15.3613 21.3589 12.3764 24 7.68723 24C2.99802 24 0 21.3589 0 17.4575V6.26733H3.83702V17.1023Z" fill="#D61515"/>
<path d="M30.8946 12.719C30.8946 10.4564 29.4977 8.98889 27.0444 8.98889C24.5933 8.98889 23.2074 10.4564 23.2074 12.719V23.5539H19.3726V12.3637C19.3726 8.46236 22.3574 5.82129 27.0466 5.82129C31.7336 5.82129 34.7316 8.46236 34.7316 12.3637V23.5539H30.8946V12.719Z" fill="#009D48"/>
<path d="M38.4741 23.554V6.27393H42.3111V23.554H38.4741Z" fill="#009BD9"/>
<path d="M38.1973 2.09341C38.1973 0.924058 39.1988 0 40.398 0C41.5994 0 42.5856 0.924058 42.5856 2.09341C42.5856 3.25006 41.5972 4.17412 40.398 4.17412C39.1988 4.17412 38.1973 3.24795 38.1973 2.09341Z" fill="#009BD9"/>
<path d="M54.7944 13.4823L52.5849 13.0382C50.4368 12.5942 49.5605 11.9577 49.5605 10.8645C49.5605 9.50693 50.83 8.63151 52.7496 8.63151C54.5989 8.63151 55.9409 9.54922 56.1254 10.9575C56.1385 11.0569 56.1517 11.2176 56.1517 11.3635H59.7384C59.7384 11.3635 59.7384 11.1669 59.7362 11.0061V10.9702C59.622 7.90833 56.7645 5.7832 52.7232 5.7832C48.493 5.7832 45.7103 7.92102 45.7103 11.1499C45.7103 13.7783 47.3487 15.4002 50.6894 16.0726L53.0768 16.5653C55.3259 17.0326 56.2396 17.6945 56.2396 18.8342C56.2396 20.1791 54.8295 21.1264 52.8352 21.1264C50.6762 21.1264 49.1761 20.2023 48.9982 18.7602C48.974 18.5847 48.9762 18.3838 48.9762 18.3838H45.2798L45.2864 18.6629L45.2974 18.8681C45.4972 22.0103 48.3129 23.9937 52.631 23.9937C57.2301 23.9937 60.0634 21.8559 60.0634 18.3986C60.0656 15.7279 58.4777 14.2266 54.7944 13.4823Z" fill="#FFCB05"/>
</svg>
